<?xml version="1.0" standalone="no"?>
<!DOCTYPE svg PUBLIC "-//W3C//DTD SVG 20010904//EN"
 "http://www.w3.org/TR/2001/REC-SVG-20010904/DTD/svg10.dtd">
<svg version="1.0" xmlns="http://www.w3.org/2000/svg"
 width="512.000000pt" height="512.000000pt" viewBox="0 0 512.000000 512.000000"
 preserveAspectRatio="xMidYMid meet">
<metadata>
Created by potrace 1.14, written by Peter Selinger 2001-2017
</metadata>
<g transform="translate(0.000000,512.000000) scale(0.100000,-0.100000)"
fill="#000000" stroke="none">
<path d="M2915 4836 c-62 -19 -103 -44 -141 -84 -127 -133 -144 -370 -38 -548
99 -167 277 -234 426 -161 116 57 187 178 194 334 7 173 -76 343 -206 420 -74
44 -169 59 -235 39z"/>
<path d="M3640 4781 c-95 -29 -173 -115 -205 -225 -38 -131 1 -285 93 -366
192 -170 468 6 457 291 -8 205 -176 351 -345 300z"/>
<path d="M4195 4548 c-180 -63 -212 -341 -50 -442 210 -132 416 185 249 383
-14 18 -39 38 -54 46 -38 20 -108 26 -145 13z"/>
<path d="M4583 4229 c-132 -27 -207 -194 -145 -321 40 -82 124 -115 207 -83
94 35 152 135 142 242 -11 113 -100 184 -204 162z"/>
<path d="M1682 4009 c-131 -65 -204 -199 -204 -373 1 -229 151 -419 339 -430
240 -13 402 250 329 534 -21 81 -56 141 -118 203 -64 64 -124 90 -215 93 -62
3 -79 -1 -131 -27z"/>
<path d="M3559 3995 c-3 -2 -22 -6 -44 -8 -161 -19 -406 -120 -512 -211 -156
-134 -214 -245 -219 -421 -5 -151 36 -294 127 -450 138 -236 180 -401 173
-680 -2 -88 -6 -176 -8 -195 -3 -19 -8 -60 -11 -90 -3 -30 -8 -62 -10 -70 -3
-13 -6 -35 -20 -140 -21 -161 -23 -306 -5 -386 31 -139 122 -245 260 -304 290
-123 546 -16 812 340 252 337 470 903 522 1360 3 25 8 68 11 95 8 65 7 279 0
330 -31 208 -66 304 -159 428 -93 126 -239 247 -366 305 -49 22 -170 69 -183
70 -14 2 -82 15 -102 19 -26 6 -261 13 -266 8z"/>
<path d="M4778 3836 c-102 -36 -166 -127 -163 -229 2 -55 43 -124 88 -145 133
-64 298 49 303 208 3 85 -40 149 -116 170 -45 13 -67 12 -112 -4z"/>
<path d="M1014 3756 c-101 -47 -155 -149 -151 -285 4 -140 87 -268 212 -326
90 -42 215 -17 285 56 57 60 75 113 74 219 0 80 -4 104 -26 152 -77 167 -253
249 -394 184z"/>
<path d="M575 3386 c-207 -91 -121 -456 109 -459 119 -2 204 98 194 227 -14
174 -168 291 -303 232z"/>
<path d="M1460 3054 c-116 -17 -241 -55 -292 -88 -13 -8 -26 -14 -29 -13 -19
6 -174 -108 -249 -182 -149 -149 -233 -301 -274 -497 -12 -59 -14 -241 -2
-309 57 -343 234 -711 507 -1060 108 -138 296 -328 394 -397 5 -4 24 -18 40
-31 158 -122 375 -205 525 -201 118 2 176 19 285 83 151 88 226 204 227 351 1
111 -23 197 -135 485 -119 307 -151 446 -150 655 0 137 8 200 49 365 20 83 26
308 9 390 -28 142 -155 299 -298 368 -167 81 -393 111 -607 81z m-567 -986 c9
-7 19 -30 22 -50 5 -29 2 -41 -14 -57 -33 -33 -75 -11 -86 45 -10 58 35 93 78
62z m49 -215 c9 -10 21 -36 28 -58 38 -123 126 -313 223 -483 14 -25 22 -53
19 -64 -6 -26 -47 -41 -71 -26 -17 10 -95 144 -156 267 -34 69 -110 265 -120
309 -12 57 42 95 77 55z"/>
<path d="M313 2970 c-134 -60 -127 -262 12 -358 32 -21 95 -38 130 -34 76 9
140 74 149 152 18 160 -154 302 -291 240z"/>
<path d="M237 2545 c-143 -36 -170 -210 -50 -316 109 -95 261 -78 320 35 46
88 -14 220 -122 267 -57 25 -93 28 -148 14z"/>
</g>
</svg>
