<?xml version="1.0" standalone="no"?>
<!DOCTYPE svg PUBLIC "-//W3C//DTD SVG 20010904//EN"
 "http://www.w3.org/TR/2001/REC-SVG-20010904/DTD/svg10.dtd">
<svg version="1.0" xmlns="http://www.w3.org/2000/svg"
 width="185.000000pt" height="185.000000pt" viewBox="0 0 185.000000 185.000000"
 preserveAspectRatio="xMidYMid meet">
<metadata>
Created by potrace 1.14, written by Peter Selinger 2001-2017
</metadata>
<g transform="translate(0.000000,185.000000) scale(0.100000,-0.100000)"
fill="#000000" stroke="none">
<path d="M804 1661 c24 -38 25 -203 1 -267 -15 -44 -17 -62 -8 -123 11 -82 0
-118 -48 -152 -27 -19 -30 -19 -60 -4 -46 24 -88 65 -116 113 -17 28 -34 44
-51 48 -40 8 -163 55 -192 73 -14 8 -42 28 -62 44 -43 33 -43 32 -23 -16 18
-43 20 -110 4 -139 -9 -17 -4 -26 45 -69 30 -27 58 -58 61 -69 6 -18 14 -19
76 -16 39 2 95 -2 125 -9 30 -7 54 -11 54 -8 0 2 14 -4 31 -13 38 -19 30 -29
-36 -42 -39 -8 -55 -7 -77 4 -41 21 -95 15 -113 -13 -8 -12 -15 -24 -15 -27 0
-7 170 -86 185 -86 9 0 10 -11 5 -38 -4 -21 -5 -47 -4 -58 2 -10 6 -39 9 -64
3 -25 12 -59 20 -76 15 -32 62 -84 76 -84 4 0 11 -10 14 -22 17 -57 59 -105
110 -129 l52 -24 6 -62 c8 -77 44 -152 87 -175 39 -22 50 -23 50 -2 0 9 7 22
14 28 13 10 12 22 -5 91 -16 68 -17 87 -7 127 6 26 14 45 17 44 16 -10 204 25
260 47 89 37 183 116 218 185 26 50 51 182 35 182 -4 0 -15 -18 -25 -41 -20
-46 -70 -99 -94 -99 -9 0 -26 -9 -37 -19 -12 -11 -32 -22 -47 -26 -23 -6 -25
-4 -27 34 -2 30 3 47 17 62 14 15 18 27 12 37 -5 10 -4 23 3 34 9 15 8 21 -4
28 -10 6 -28 1 -59 -16 l-45 -25 -28 21 c-15 11 -49 24 -74 29 -25 5 -57 19
-71 32 l-25 24 34 5 c18 3 53 2 77 -3 27 -6 46 -6 50 0 3 6 17 16 30 23 22 11
23 14 8 25 -9 7 -17 14 -17 17 0 2 42 4 93 3 50 -2 97 0 102 4 6 3 17 6 25 6
65 4 125 45 136 93 3 15 7 32 8 37 4 13 -31 82 -46 92 -7 4 -21 22 -30 38 -20
36 -48 46 -48 16 0 -12 -6 -21 -15 -21 -9 0 -30 -7 -47 -16 -27 -14 -37 -14
-69 -4 -29 10 -42 10 -52 1 -11 -9 -17 -8 -24 1 -21 26 -47 83 -44 97 1 7 -2
10 -8 6 -6 -3 -14 -24 -17 -46 l-7 -40 -46 2 c-35 3 -46 0 -46 -11 0 -24 -55
-47 -88 -37 -21 7 -32 5 -47 -8 -10 -9 -29 -15 -42 -13 -29 4 -27 35 5 87 17
28 22 52 23 111 0 41 5 91 10 110 14 47 8 67 -22 74 -14 4 -45 25 -68 46 -40
37 -64 52 -52 31z m344 -619 c23 -8 42 -17 42 -21 0 -14 -116 -4 -147 13 -18
9 -33 19 -33 22 0 10 94 1 138 -14z"/>
</g>
</svg>
