<?xml version="1.0" encoding="utf-8"?>
<!-- Generator: Adobe Illustrator 27.9.4, SVG Export Plug-In . SVG Version: 9.03 Build 54784)  -->
<svg version="1.1" id="Laag_1" xmlns="http://www.w3.org/2000/svg" xmlns:xlink="http://www.w3.org/1999/xlink" x="0px" y="0px"
	 viewBox="0 0 103.83 41.03" style="enable-background:new 0 0 103.83 41.03;" xml:space="preserve">
<style type="text/css">
	.st0{fill:#1D1D1B;}
	.st1{fill:#397B6B;}
	.st2{fill:none;stroke:#397B6B;}
</style>
<g>
	<g>
		<g>
			<path class="st0" d="M1.53,5.56l0.24-0.5l0.06-0.01C2,5.19,2.19,5.27,2.42,5.27c0.27,0,0.7-0.2,0.7-0.88V0.5l0.04-0.05l0.59-0.08
				L3.79,0.4v4.05c0,0.89-0.54,1.46-1.34,1.46c-0.38,0-0.69-0.11-0.92-0.29L1.53,5.56z"/>
			<path class="st0" d="M5.08,1.95L5.12,1.9l0.56-0.08l0.04,0.03v2.51c0,0.7,0.39,0.97,0.85,0.97c0.22,0,0.82-0.22,0.82-0.22V1.95
				L7.43,1.9l0.56-0.08l0.04,0.03v3.17l0.2,0.7L8.18,5.78L7.7,5.85L7.65,5.82L7.42,5.25c-0.1,0.3-0.39,0.66-1.11,0.66
				c-0.71,0-1.22-0.49-1.22-1.41V1.95z"/>
			<path class="st0" d="M9.29,2.69l-0.2-0.75l0.04-0.05l0.49-0.07l0.05,0.03l0.22,0.56c0.03-0.1,0.26-0.65,1.12-0.65
				c0.7,0,1.27,0.47,1.27,1.38v2.62l-0.04,0.04h-0.56l-0.04-0.04V3.28c0-0.69-0.44-0.94-0.9-0.94c-0.18,0-0.66,0.14-0.82,0.18v3.25
				L9.89,5.81H9.33L9.29,5.77V2.69z"/>
			<path class="st0" d="M13.33,3.18c0-0.9,0.62-1.42,1.52-1.42c1.02,0,1.4,0.62,1.4,1.18c0,0.79-0.56,1.17-1.32,1.17
				c-0.78,0-0.98-0.39-1-0.45l0.04,0.3v0.42c0,0.62,0.35,0.94,0.9,0.94c0.48,0,0.72-0.16,0.87-0.42l0.06-0.02l0.48,0.17l0.02,0.05
				c-0.19,0.51-0.72,0.8-1.4,0.8c-0.98,0-1.57-0.47-1.57-1.38V3.18z M14.75,3.56c0.44,0,0.83-0.14,0.83-0.64
				c0-0.28-0.22-0.58-0.75-0.58c-0.54,0-0.86,0.31-0.86,0.93v0.14C13.97,3.41,14.31,3.56,14.75,3.56z"/>
		</g>
		<g>
			<path class="st0" d="M1.08,38.79c0.7-0.38,2.31-1.41,2.31-2.49c0-0.5-0.34-0.82-0.9-0.82c-0.73,0-1.14,0.64-1.14,0.64H1.3
				l-0.42-0.29l-0.01-0.06c0,0,0.5-0.88,1.69-0.88c0.85,0,1.52,0.46,1.52,1.37c0,1.29-1.45,2.13-1.53,2.17L2.21,38.6h2.02l0.03,0.04
				l-0.14,0.5l-0.05,0.04H1.19l-0.04-0.04L1.08,38.79z"/>
			<path class="st0" d="M5.19,36.45c0-1.11,0.86-1.55,1.74-1.55s1.74,0.44,1.74,1.55v1.28c0,1.11-0.86,1.55-1.74,1.55
				s-1.74-0.44-1.74-1.55V36.45z M6.94,38.7c0.62,0,1.1-0.35,1.1-1.11v-1.01c0-0.76-0.48-1.11-1.1-1.11s-1.1,0.35-1.1,1.11v1.01
				C5.83,38.35,6.31,38.7,6.94,38.7z"/>
			<path class="st0" d="M9.76,38.79c0.7-0.38,2.31-1.41,2.31-2.49c0-0.5-0.34-0.82-0.9-0.82c-0.73,0-1.14,0.64-1.14,0.64H9.98
				l-0.42-0.29l-0.01-0.06c0,0,0.5-0.88,1.69-0.88c0.85,0,1.52,0.46,1.52,1.37c0,1.29-1.45,2.13-1.53,2.17l-0.34,0.18h2.02
				l0.03,0.04l-0.14,0.5l-0.05,0.04H9.87l-0.04-0.04L9.76,38.79z"/>
			<path class="st0" d="M13.53,38.51l2.49-3.45l0.05-0.03l0.46-0.08l0.04,0.03v3.38h0.99l0.03,0.04l-0.14,0.5l-0.05,0.04h-0.83v1.41
				l-0.04,0.05l-0.56,0.08l-0.04-0.03v-1.5h-2.24l-0.04-0.04L13.53,38.51z M15.93,38.37v-1.93l0.02-0.28l-0.14,0.24l-1.34,1.82
				l-0.12,0.14H15.93z"/>
		</g>
		<g>
			<path class="st1" d="M7.19,27.45c0.39,0,0.39-0.34,0.61-0.34c0.22,0,0.27,0.39,0.27,0.71c0,0.76-0.29,1.47-0.95,1.47h-5.5
				c-0.46,0-0.91-0.37-0.91-0.9c0-0.27,0.1-0.54,0.29-0.71c0.05-0.05,5.36-5.38,5.36-10.74c0-2.62-1.42-3.2-2.15-3.2
				c-1.13,0-2.32,0.86-2.32,3.2c0,1.61,0.68,2.86,1.05,2.86c0.12,0,0.17-0.12,0.24-0.12c0.05,0,0.1,0.07,0.07,0.22
				c-0.05,0.42-0.56,1.08-1.2,1.08C0.83,20.96,0,18.71,0,16.93c0-3.45,2.18-5.01,4.26-5.01c2.79,0,4.01,2.62,4.01,5.09
				c0,4.21-2.86,8.32-4.62,10.44H7.19z"/>
			<path class="st1" d="M13.77,11.91c2.86,0,3.96,2.79,3.96,5.31c0,3.03-1.27,4.62-2.67,5.58c0.91,0.54,2.15,1.52,2.15,3.4
				c0,2.03-1.44,3.52-3.4,3.52c-2.08,0-3.3-2.01-3.3-3.28c0-0.42,0.76-0.61,1.3-0.61c0.37,0,0.54,0.05,0.54,0.15
				s-0.05,0.12-0.05,0.27c0,0.2,0.34,1.66,1.61,1.66c0.71,0,1.42-0.61,1.42-1.61c0-1.86-1.59-2.45-2.2-2.62
				c-0.39-0.1-0.69-0.42-0.69-1.08c0-0.25,0.07-0.61,0.49-0.61c0.05,0,0.12,0.03,0.2,0.03c1.49-0.49,2.74-1.83,2.74-4.87
				c0-2.4-1-3.42-2.2-3.42c-1.13,0-2.2,0.98-2.2,3.08c0,1.47,0.66,2.59,1.03,2.59c0.12,0,0.17-0.12,0.24-0.12
				c0.05,0,0.07,0.05,0.07,0.15c0,0.42-0.51,1.15-1.2,1.15c-1.2,0-2.01-2.1-2.01-3.79C9.61,13.43,11.71,11.91,13.77,11.91z"/>
		</g>
		<g>
			<path class="st0" d="M40.73,0.13l0.04-0.05L41.33,0l0.04,0.03v2.01l-0.04,0.35c0.06-0.14,0.3-0.62,1.11-0.62
				c0.7,0,1.23,0.47,1.23,1.4v1.36c0,0.9-0.63,1.38-1.46,1.38c-0.49,0-0.94-0.22-0.94-0.22l-0.51,0.07l-0.04-0.04V0.13z M42.15,5.33
				c0.53,0,0.88-0.33,0.88-0.94V3.28c0-0.69-0.39-0.94-0.86-0.94c-0.18,0-0.66,0.14-0.8,0.18v2.66C41.37,5.19,41.75,5.33,42.15,5.33
				z"/>
			<path class="st0" d="M44.7,0.91V0.25l0.04-0.04h0.66l0.04,0.04v0.66l-0.04,0.04h-0.66L44.7,0.91z M44.75,1.95l0.04-0.05
				l0.56-0.08l0.04,0.03v3.92l-0.04,0.04h-0.56l-0.04-0.04V1.95z"/>
			<path class="st0" d="M46.63,2.69l-0.2-0.75l0.04-0.05l0.49-0.07l0.05,0.03l0.22,0.56c0.03-0.1,0.26-0.65,1.1-0.65l0.04,0.05
				l-0.12,0.67l-0.06,0.04c-0.11-0.06-0.25-0.07-0.42-0.07c-0.18,0-0.34,0.02-0.5,0.07v3.25l-0.04,0.04h-0.56l-0.04-0.04V2.69z"/>
			<path class="st0" d="M49.18,2.44h-0.43L48.71,2.4V1.9l0.04-0.04h0.46l0.07-0.81l0.04-0.05l0.46-0.06l0.04,0.03v0.89h1.33
				l0.04,0.04l-0.15,0.5l-0.06,0.04h-1.16v1.93c0,0.54,0.26,0.95,0.7,0.95c0.3,0,0.59-0.25,0.59-0.25l0.06,0.01l0.25,0.46
				l-0.02,0.06c-0.26,0.18-0.58,0.32-0.94,0.32c-0.73,0-1.29-0.5-1.29-1.5V2.44z"/>
			<path class="st0" d="M52.11,0.13l0.04-0.05L52.71,0l0.04,0.03v2.01l-0.04,0.35c0.06-0.14,0.34-0.62,1.15-0.62
				c0.7,0,1.23,0.47,1.23,1.38v2.62l-0.04,0.04h-0.56l-0.04-0.04V3.28c0-0.69-0.39-0.94-0.86-0.94c-0.18,0-0.7,0.14-0.84,0.18v3.25
				l-0.04,0.04h-0.56l-0.04-0.04V0.13z"/>
		</g>
		<g>
			<path class="st0" d="M37.96,39.2L38,39.17h1.12v-3.04h-0.76l-0.05-0.04l-0.14-0.5l0.03-0.04h1.52l0.04,0.04v3.57h1.17l0.03,0.04
				l-0.14,0.5l-0.05,0.04H38l-0.04-0.04V39.2z"/>
			<path class="st0" d="M41.67,37.01c0-1.11,0.86-1.55,1.74-1.55s1.74,0.44,1.74,1.55v1.28c0,1.11-0.86,1.55-1.74,1.55
				s-1.74-0.44-1.74-1.55V37.01z M43.41,39.26c0.62,0,1.1-0.35,1.1-1.11v-1.01c0-0.76-0.48-1.11-1.1-1.11s-1.1,0.35-1.1,1.11v1.01
				C42.31,38.91,42.79,39.26,43.41,39.26z"/>
			<path class="st0" d="M46.26,35.88l0.04-0.05l0.56-0.08l0.04,0.03v2.51c0,0.7,0.39,0.97,0.85,0.97c0.22,0,0.82-0.22,0.82-0.22
				v-3.16l0.04-0.05l0.56-0.08l0.04,0.03v3.17l0.2,0.7l-0.04,0.05l-0.49,0.07l-0.05-0.03l-0.23-0.58c-0.1,0.3-0.39,0.66-1.11,0.66
				c-0.71,0-1.22-0.49-1.22-1.41V35.88z"/>
			<path class="st0" d="M50.26,39.76h0.06c0,0,0.42,0.7,1.26,0.7c0.56,0,1.13-0.37,1.13-0.99v-0.24c0-0.62-0.57-0.98-1.13-0.98
				c-0.54,0-0.93,0.22-0.93,0.22h-0.04l-0.25-0.34v-2.52l0.05-0.04h2.65l0.03,0.04l-0.14,0.5l-0.05,0.04H51v1.6
				c0,0,0.29-0.06,0.59-0.06c0.88,0,1.75,0.53,1.75,1.48v0.41c0,0.94-0.87,1.48-1.75,1.48c-1.26,0-1.75-0.92-1.75-0.92l0.01-0.06
				L50.26,39.76z"/>
			<path class="st0" d="M55.07,36.98c-0.4-0.15-0.72-0.64-0.72-1.18c0-1.02,0.64-1.54,1.61-1.54c0.96,0,1.59,0.52,1.59,1.54
				c0,0.54-0.31,1.03-0.71,1.18c0.53,0.18,0.83,0.76,0.83,1.3c0,1.1-0.83,1.55-1.71,1.55c-0.88,0-1.73-0.45-1.73-1.55
				C54.23,37.74,54.54,37.16,55.07,36.98z M55.97,39.26c0.61,0,1.07-0.36,1.07-0.98c0-0.61-0.46-1.01-1.07-1.01
				c-0.62,0-1.1,0.4-1.1,1.01C54.87,38.91,55.34,39.26,55.97,39.26z M56.92,35.8c0-0.59-0.35-0.96-0.96-0.96
				c-0.62,0-0.98,0.37-0.98,0.96c0,0.56,0.35,0.93,0.98,0.93C56.57,36.73,56.92,36.36,56.92,35.8z"/>
		</g>
		<path class="st1" d="M46.47,14.59c-0.91-1.51-2.78-2.1-4.37-1.42L42,13c-0.09-0.17-0.3-0.23-0.47-0.15
			c-0.17,0.09-0.24,0.3-0.15,0.47l0.1,0.19c-1.45,1-1.94,2.93-1.11,4.51L46.47,14.59z"/>
		<path class="st1" d="M54.43,13.61l0.15-0.29c0.09-0.17,0.03-0.38-0.15-0.47c-0.17-0.09-0.38-0.02-0.47,0.15l-0.13,0.25
			c-1.62-0.78-3.58-0.21-4.51,1.35l6.08,3.43C56.22,16.49,55.78,14.63,54.43,13.61"/>
		<path class="st1" d="M48,22.8c0.08,0,0.17-0.02,0.24-0.08l1.86-1.41c0.17-0.13,0.21-0.38,0.08-0.55
			c-0.13-0.17-0.38-0.21-0.55-0.08l-1.42,1.08v-3.7c0-0.11-0.09-0.2-0.2-0.2c-0.11,0-0.2,0.09-0.2,0.2v4l-0.04,0.03
			c-0.17,0.13-0.21,0.38-0.08,0.55C47.76,22.74,47.88,22.8,48,22.8"/>
		<path class="st1" d="M47.9,16.82c3.08,0,5.58,2.5,5.58,5.58c0,3.08-2.5,5.58-5.58,5.58c-3.08,0-5.58-2.5-5.58-5.58
			C42.32,19.32,44.82,16.82,47.9,16.82 M46.62,13.71h0.79v1.75c-3.62,0.25-6.47,3.26-6.47,6.94c0,2.44,1.26,4.59,3.17,5.83
			c-0.04,0.04-0.08,0.09-0.11,0.14l-0.87,1.49c-0.2,0.34-0.08,0.78,0.26,0.98l0.13,0.07c0.34,0.2,0.78,0.08,0.98-0.26l0.87-1.5
			c0.05-0.08,0.07-0.16,0.09-0.25c0.76,0.29,1.59,0.45,2.45,0.45c0.79,0,1.56-0.14,2.27-0.39c0.02,0.06,0.04,0.13,0.07,0.18
			l0.87,1.5c0.2,0.34,0.64,0.46,0.98,0.26l0.13-0.07c0.34-0.2,0.46-0.64,0.26-0.98l-0.87-1.49c-0.01-0.02-0.03-0.04-0.04-0.06
			c1.98-1.23,3.3-3.41,3.3-5.91c0-3.85-3.12-6.97-6.96-6.97c-0.03,0-0.07,0-0.1,0.01v-1.73h0.79c0.22,0,0.4-0.18,0.4-0.4
			c0-0.22-0.18-0.39-0.4-0.39h-1.98c-0.22,0-0.4,0.18-0.4,0.39C46.22,13.53,46.4,13.71,46.62,13.71"/>
	</g>
	<rect x="43.06" y="22.4" class="st1" width="1.18" height="0.4"/>
	<rect x="51.36" y="22.4" class="st1" width="1.18" height="0.4"/>
	<rect x="47.8" y="25.96" class="st1" width="0.39" height="1.18"/>
	<g>
		<line class="st2" x1="27.26" y1="0.2" x2="27.26" y2="40.45"/>
		<line class="st2" x1="68.54" y1="0.2" x2="68.54" y2="40.45"/>
		<path class="st1" d="M91.23,14.31c1.79,0,3.25,1.45,3.25,3.25c0,1.79-1.45,3.25-3.25,3.25c-1.79,0-3.25-1.45-3.25-3.25
			C87.98,15.76,89.44,14.31,91.23,14.31 M96.35,20.63c-0.08-0.29-1.45-5.41-1.64-6.11c-0.18-0.7-0.67-0.88-1.22-0.88h-1.78V13
			c3.31-0.31,4.19-2.77,4.19-2.77h-9.57c0,0,0.74,2.6,4.28,2.78v0.63h-1.65c-0.55,0-1.03,0.19-1.22,0.88
			c-0.19,0.7-1.56,5.82-1.64,6.11c-0.11,0.36-0.07,0.83,0.66,0.83h0.52v0.39h7.78v-0.39h0.61C96.42,21.46,96.45,20.99,96.35,20.63"
			/>
		<path class="st1" d="M89.37,16.12l-0.33-0.24l-0.1,0.14l0.33,0.23C89.29,16.21,89.33,16.17,89.37,16.12"/>
		<path class="st1" d="M90.28,15.4l-0.18-0.37l-0.15,0.08l0.19,0.37C90.18,15.45,90.23,15.42,90.28,15.4"/>
		<path class="st1" d="M88.87,17.55c0-0.02,0.01-0.04,0.01-0.05h-0.41v0.17h0.42C88.88,17.63,88.87,17.59,88.87,17.55"/>
		<path class="st1" d="M93.78,16.31l-0.08-0.15l-0.43,0.23c0.03,0.05,0.06,0.1,0.08,0.15L93.78,16.31z"/>
		<path class="st1" d="M92.79,15.22l-0.15-0.09l-0.24,0.39c0.05,0.03,0.1,0.05,0.15,0.08L92.79,15.22z"/>
		<path class="st1" d="M91.36,15.21v-0.43h-0.17v0.43c0.01,0,0.03,0,0.04,0C91.27,15.2,91.31,15.21,91.36,15.21"/>
		<path class="st1" d="M92.6,20.06l-0.23-0.46c-0.05,0.03-0.1,0.06-0.15,0.08l0.22,0.45L92.6,20.06z"/>
		<path class="st1" d="M93.61,19.14l-0.41-0.29c-0.03,0.05-0.07,0.09-0.1,0.13l0.42,0.3L93.61,19.14z"/>
		<path class="st1" d="M93.59,17.55c0,0.04-0.01,0.08-0.01,0.11h0.5V17.5h-0.5C93.58,17.52,93.59,17.53,93.59,17.55"/>
		<path class="st1" d="M91.19,19.91v0.48h0.17V19.9c-0.04,0-0.08,0.01-0.13,0.01C91.22,19.91,91.2,19.91,91.19,19.91"/>
		<path class="st1" d="M89.15,18.64l-0.39,0.21L88.85,19l0.38-0.21C89.2,18.74,89.18,18.69,89.15,18.64"/>
		<path class="st1" d="M90.14,19.63c-0.05-0.03-0.1-0.05-0.15-0.08l-0.24,0.4l0.15,0.09L90.14,19.63z"/>
		<path class="st1" d="M91.28,17.26c0.08,0,0.15,0.07,0.15,0.15s-0.07,0.15-0.15,0.15c-0.08,0-0.15-0.07-0.15-0.15
			S91.2,17.26,91.28,17.26 M90.24,19.2l0.13,0.08l0.82-1.37c0.03,0.01,0.06,0.02,0.1,0.02c0.29,0,0.52-0.23,0.52-0.52
			c0-0.29-0.23-0.52-0.52-0.52c-0.29,0-0.52,0.23-0.52,0.52c0,0.16,0.08,0.3,0.2,0.4L90.24,19.2z"/>
		<g>
			<path class="st0" d="M78.98,5.8h0.06c0,0,0.42,0.7,1.25,0.7c0.58,0,1.13-0.36,1.13-1V5.39c0-0.6-0.49-0.94-1.33-0.94h-0.35
				l-0.03-0.04l0.14-0.5l0.05-0.04h0.2c0.89,0,1.19-0.36,1.19-0.88c0-0.63-0.48-0.89-1.04-0.89c-0.76,0-1.13,0.58-1.13,0.58h-0.06
				l-0.4-0.29l-0.01-0.06c0,0,0.49-0.82,1.6-0.82c0.97,0,1.68,0.53,1.68,1.46c0,0.47-0.26,1-0.72,1.18c0.53,0.17,0.86,0.62,0.86,1.1
				v0.3c0,0.95-0.86,1.5-1.75,1.5c-1.26,0-1.74-0.92-1.74-0.92l0.01-0.06L78.98,5.8z"/>
			<path class="st0" d="M83.13,5.02l0.05-0.04h0.84l0.02,0.04L83.2,6.81l-0.06,0.03l-0.31-0.1L82.8,6.69L83.13,5.02z"/>
			<path class="st0" d="M85.06,5.42c0.7-0.38,2.31-1.41,2.31-2.49c0-0.5-0.34-0.82-0.9-0.82c-0.73,0-1.14,0.64-1.14,0.64h-0.06
				l-0.42-0.29l-0.01-0.06c0,0,0.5-0.88,1.69-0.88c0.85,0,1.52,0.46,1.52,1.37c0,1.29-1.45,2.13-1.53,2.17l-0.34,0.18h2.02
				l0.03,0.04l-0.14,0.5l-0.05,0.04h-2.89l-0.04-0.04L85.06,5.42z"/>
			<path class="st0" d="M89.05,5.83h0.06c0,0,0.42,0.7,1.26,0.7c0.56,0,1.13-0.37,1.13-0.99V5.29c0-0.62-0.57-0.98-1.13-0.98
				c-0.54,0-0.93,0.22-0.93,0.22h-0.04l-0.25-0.34V1.66l0.05-0.04h2.65l0.03,0.04l-0.14,0.5L91.69,2.2h-1.9v1.6
				c0,0,0.29-0.06,0.59-0.06c0.88,0,1.75,0.53,1.75,1.48v0.41c0,0.94-0.87,1.48-1.75,1.48c-1.25,0-1.75-0.92-1.75-0.92l0.01-0.06
				L89.05,5.83z"/>
			<path class="st0" d="M92.96,5.83h0.06c0,0,0.42,0.7,1.26,0.7c0.56,0,1.13-0.37,1.13-0.99V5.29c0-0.62-0.57-0.98-1.13-0.98
				c-0.54,0-0.93,0.22-0.93,0.22h-0.04l-0.25-0.34V1.66l0.05-0.04h2.65l0.03,0.04l-0.14,0.5L95.6,2.2H93.7v1.6
				c0,0,0.29-0.06,0.59-0.06c0.88,0,1.75,0.53,1.75,1.48v0.41c0,0.94-0.87,1.48-1.75,1.48c-1.26,0-1.75-0.92-1.75-0.92l0.01-0.06
				L92.96,5.83z"/>
			<path class="st0" d="M97.05,0.13l0.04-0.05L97.65,0l0.04,0.03V3.3h0.06l1.14-1.37l0.06-0.03l0.84-0.08l0.04,0.04l-1.29,1.41
				l-0.18,0.16l0.17,0.19l0.83,1.26c0.09,0.13,0.27,0.38,0.58,0.38c0.03,0,0.07,0,0.11-0.01l0.04,0.04l-0.09,0.51l-0.04,0.04
				c-0.05,0.01-0.09,0.01-0.14,0.01c-0.62,0-0.9-0.44-1.05-0.67l-1.03-1.61h-0.06v2.19l-0.03,0.04h-0.58l-0.03-0.04V0.13z"/>
			<path class="st0" d="M101.38,4.66c0,0-0.86-0.23-0.86-1.38c0-0.93,0.57-1.46,1.5-1.46h0.79l0.88-0.18l0.05,0.03l0.08,0.44
				l-0.03,0.06l-0.54,0.15c0.26,0.16,0.39,0.58,0.39,0.98c0,0.88-0.58,1.48-1.54,1.48c-0.28,0-0.51-0.04-0.51-0.04
				s-0.05,0.12-0.05,0.24c0,0.32,0.18,0.51,0.48,0.51h0.5c0.78,0,1.17,0.45,1.17,1.06c0,0.76-0.75,1.12-1.5,1.12
				c-0.78,0-1.42-0.24-1.68-0.77l0.02-0.06l0.48-0.22l0.06,0.02c0,0,0.18,0.45,1.11,0.45c0.58,0,0.88-0.27,0.88-0.57
				c0-0.23-0.18-0.46-0.54-0.46h-0.5c-0.66,0-1.01-0.37-1.01-0.74C101.02,5.03,101.17,4.79,101.38,4.66z M103.01,3.28
				c0-0.63-0.32-0.94-0.94-0.94c-0.54,0-0.91,0.31-0.91,0.94c0,0.61,0.32,0.93,0.91,0.93C102.69,4.21,103.01,3.89,103.01,3.28z"/>
		</g>
	</g>
	<g>
		<path class="st0" d="M82.58,32.26h0.06c0,0,0.42,0.7,1.26,0.7c0.56,0,1.13-0.37,1.13-0.99v-0.24c0-0.62-0.57-0.98-1.13-0.98
			c-0.54,0-0.93,0.22-0.93,0.22h-0.04l-0.25-0.34v-2.52l0.05-0.04h2.65l0.03,0.04l-0.14,0.5l-0.05,0.04h-1.89v1.6
			c0,0,0.29-0.06,0.59-0.06c0.88,0,1.75,0.53,1.75,1.48v0.41c0,0.93-0.87,1.48-1.75,1.48c-1.26,0-1.75-0.92-1.75-0.92l0.01-0.06
			L82.58,32.26z"/>
		<path class="st0" d="M86.62,31.85c0.7-0.38,2.31-1.41,2.31-2.49c0-0.5-0.34-0.82-0.9-0.82c-0.73,0-1.14,0.64-1.14,0.64h-0.06
			l-0.42-0.29l-0.01-0.06c0,0,0.5-0.88,1.69-0.88c0.85,0,1.52,0.46,1.52,1.37c0,1.29-1.45,2.13-1.53,2.17l-0.34,0.18h2.02l0.03,0.04
			l-0.14,0.5l-0.05,0.04h-2.89l-0.04-0.04L86.62,31.85z"/>
		<path class="st0" d="M90.67,29.59c0-0.82,0.58-1.39,1.56-1.39c0.6,0,1.13,0.27,1.36,0.82l-0.02,0.05l-0.48,0.17l-0.06-0.02
			c-0.14-0.27-0.44-0.44-0.84-0.44c-0.54,0-0.88,0.33-0.88,0.94v1.1c0,0.62,0.34,0.94,0.88,0.94c0.5,0,0.74-0.18,0.88-0.42
			l0.06-0.02l0.48,0.17l0.02,0.05c-0.2,0.52-0.72,0.8-1.4,0.8c-0.98,0-1.56-0.57-1.56-1.38V29.59z"/>
		<path class="st0" d="M94.6,29.12l-0.2-0.75l0.04-0.05l0.49-0.07l0.05,0.03l0.22,0.56c0.03-0.1,0.26-0.65,1.12-0.65
			c0.46,0,0.81,0.2,0.99,0.59c0.09-0.16,0.4-0.59,1.17-0.59c0.7,0,1.22,0.47,1.22,1.38v2.62l-0.04,0.04h-0.57l-0.03-0.04v-2.49
			c0-0.69-0.39-0.93-0.85-0.93c-0.18,0-0.65,0.12-0.83,0.18c0.05,0.16,0.09,0.34,0.09,0.56v2.69l-0.04,0.04h-0.56l-0.04-0.04v-2.49
			c0-0.69-0.32-0.94-0.78-0.94c-0.18,0-0.66,0.14-0.82,0.18v3.25l-0.04,0.04h-0.56L94.6,32.2V29.12z"/>
	</g>
	<path class="st1" d="M98.62,37.76v-1.05l0.76,0l0,2.94l-16.29,0.02l0-2.94l0.95,0l0,1.39h0.57l0-1.4h0.61l0,0.9h0.57l0-0.9l0.84,0
		l0,1.4l0.57,0l0-1.39l0.61,0v0.91l0.56,0l0-0.91l0.82,0l0,1.54h0.57l-0.01-1.54l0.61,0v1.05h0.57l0-1.05l0.84,0l0,1.54l0.57,0
		v-1.54h0.61l0,1.05l0.56,0l0-1.05l0.78,0v1.54l0.57,0l0-1.54h0.61l0,1.05l0.57,0l0-1.05l0.84,0l0,1.54h0.56v-1.54l0.61,0v1.05
		L98.62,37.76z M82.29,35.94l0,4.51l17.86-0.02l-0.01-4.51L82.29,35.94z"/>
</g>
</svg>
