<?xml version="1.0" encoding="utf-8"?>
<!-- Generator: Adobe Illustrator 27.9.4, SVG Export Plug-In . SVG Version: 9.03 Build 54784)  -->
<svg version="1.1" id="Laag_1" xmlns="http://www.w3.org/2000/svg" xmlns:xlink="http://www.w3.org/1999/xlink" x="0px" y="0px"
	 viewBox="0 0 34.91 25.07" style="enable-background:new 0 0 34.91 25.07;" xml:space="preserve">
<style type="text/css">
	.st0{fill:#3E7C6B;}
</style>
<g>
	<path class="st0" d="M31.39,22.72H3.52c-0.08,0-0.16-0.01-0.24-0.03l9.82-9.33l3.61,3.19c0.24,0.23,0.47,0.31,0.78,0.31
		c0.23,0,0.55-0.16,0.78-0.31l3.57-3.16l9.84,9.29C31.59,22.71,31.49,22.72,31.39,22.72 M4.15,2.34h26.67l-13.33,11.8L4.15,2.34z
		 M2.34,20.32V3.84l9.02,7.98L2.34,20.32z M23.59,11.85l8.98-7.94v16.42L23.59,11.85z M34.62,23.03c0.2-0.45,0.31-0.95,0.28-1.47
		V3.52c0-0.89-0.32-1.69-0.85-2.3C34.03,1.17,34,1.13,33.97,1.09c-0.06-0.07-0.13-0.13-0.21-0.18C33.14,0.34,32.31,0,31.39,0H3.52
		C1.56,0,0,1.56,0,3.52v18.04c0,0.45,0.08,0.87,0.23,1.26c0,0.28,0.1,0.55,0.31,0.76c0.07,0.07,0.15,0.14,0.24,0.19
		c0.64,0.79,1.62,1.3,2.73,1.3h27.96c1.09,0,2.1-0.53,2.74-1.36c0.05-0.04,0.1-0.08,0.15-0.13C34.5,23.42,34.59,23.23,34.62,23.03"
		/>
</g>
</svg>
