<?xml version="1.0" encoding="utf-8"?>
<!-- Generator: Adobe Illustrator 27.9.4, SVG Export Plug-In . SVG Version: 9.03 Build 54784)  -->
<svg version="1.1" id="Laag_1" xmlns="http://www.w3.org/2000/svg" xmlns:xlink="http://www.w3.org/1999/xlink" x="0px" y="0px"
	 viewBox="0 0 15.84 18.2" style="enable-background:new 0 0 15.84 18.2;" xml:space="preserve">
<style type="text/css">
	.st0{fill:#397B6B;}
</style>
<g>
	<path class="st0" d="M6.49,1.78c-0.91-1.51-2.78-2.1-4.37-1.42l-0.1-0.18c-0.09-0.17-0.3-0.23-0.47-0.15
		c-0.17,0.09-0.24,0.3-0.15,0.47l0.1,0.19c-1.45,1-1.94,2.93-1.11,4.51L6.49,1.78z"/>
	<path class="st0" d="M14.45,0.79l0.15-0.29c0.09-0.17,0.03-0.38-0.15-0.47c-0.17-0.09-0.38-0.02-0.47,0.15l-0.13,0.25
		c-1.62-0.78-3.58-0.21-4.51,1.35l6.08,3.43C16.24,3.68,15.8,1.81,14.45,0.79"/>
	<path class="st0" d="M8.02,9.98c0.08,0,0.17-0.02,0.24-0.08l1.86-1.41c0.17-0.13,0.21-0.38,0.08-0.55
		c-0.13-0.17-0.38-0.21-0.55-0.08L8.22,8.94v-3.7c0-0.11-0.09-0.2-0.2-0.2c-0.11,0-0.2,0.09-0.2,0.2v4L7.78,9.27
		C7.61,9.41,7.57,9.65,7.7,9.83C7.78,9.93,7.9,9.98,8.02,9.98"/>
	<path class="st0" d="M7.92,4.01c3.08,0,5.58,2.5,5.58,5.58c0,3.08-2.5,5.58-5.58,5.58c-3.08,0-5.58-2.5-5.58-5.58
		C2.34,6.51,4.84,4.01,7.92,4.01 M6.64,0.9h0.79v1.75C3.81,2.9,0.95,5.91,0.95,9.59c0,2.44,1.26,4.59,3.17,5.83
		c-0.04,0.04-0.08,0.09-0.11,0.14l-0.87,1.49c-0.2,0.34-0.08,0.78,0.26,0.98l0.13,0.07c0.34,0.2,0.78,0.08,0.98-0.26l0.87-1.49
		c0.05-0.08,0.07-0.16,0.09-0.25c0.76,0.29,1.59,0.45,2.45,0.45c0.79,0,1.56-0.14,2.27-0.39c0.02,0.06,0.04,0.13,0.07,0.18
		l0.87,1.49c0.2,0.34,0.64,0.46,0.98,0.26l0.13-0.07c0.34-0.2,0.46-0.64,0.26-0.98l-0.87-1.49c-0.01-0.02-0.03-0.04-0.04-0.06
		c1.98-1.23,3.3-3.41,3.3-5.91c0-3.85-3.12-6.97-6.96-6.97c-0.03,0-0.07,0-0.1,0.01V0.9h0.79c0.22,0,0.4-0.18,0.4-0.4
		c0-0.22-0.18-0.39-0.4-0.39H6.64c-0.22,0-0.4,0.18-0.4,0.39C6.24,0.72,6.42,0.9,6.64,0.9"/>
	<rect x="3.08" y="9.59" class="st0" width="1.18" height="0.4"/>
	<rect x="11.38" y="9.59" class="st0" width="1.18" height="0.4"/>
	<rect x="7.82" y="13.15" class="st0" width="0.39" height="1.18"/>
</g>
</svg>
