<?xml version="1.0" encoding="utf-8"?>
<!-- Generator: Adobe Illustrator 27.9.4, SVG Export Plug-In . SVG Version: 9.03 Build 54784)  -->
<svg version="1.1" id="Laag_1" xmlns="http://www.w3.org/2000/svg" xmlns:xlink="http://www.w3.org/1999/xlink" x="0px" y="0px"
	 viewBox="0 0 17.87 4.53" style="enable-background:new 0 0 17.87 4.53;" xml:space="preserve">
<style type="text/css">
	.st0{fill:#397B6B;}
</style>
<path class="st0" d="M16.32,1.84V0.78l0.76,0l0,2.94L0.79,3.74l0-2.94l0.95,0l0,1.39h0.57l0-1.4h0.61l0,0.9h0.57l0-0.9l0.84,0l0,1.4
	l0.57,0l0-1.39l0.61,0V1.7l0.56,0l0-0.9l0.82,0l0,1.54h0.57L7.46,0.8l0.61,0v1.05h0.57l0-1.05l0.84,0l0,1.54l0.57,0V0.79h0.61
	l0,1.05l0.56,0l0-1.05l0.78,0v1.54l0.57,0l0-1.54h0.61l0,1.05l0.57,0l0-1.05l0.84,0l0,1.54h0.56V0.79l0.61,0v1.05L16.32,1.84z
	 M0,0.02l0,4.51l17.86-0.02L17.86,0L0,0.02z"/>
</svg>
