<?xml version="1.0" encoding="utf-8"?>
<!-- Generator: Adobe Illustrator 27.9.4, SVG Export Plug-In . SVG Version: 9.03 Build 54784)  -->
<svg version="1.1" id="Laag_1" xmlns="http://www.w3.org/2000/svg" xmlns:xlink="http://www.w3.org/1999/xlink" x="0px" y="0px"
	 viewBox="0 0 31.65 27.66" style="enable-background:new 0 0 31.65 27.66;" xml:space="preserve">
<style type="text/css">
	.st0{fill:#3E7C6B;}
</style>
<g>
	<g>
		<path class="st0" d="M30,2.95L28,1.88C28,1.88,25.02,0,16.45,0h-1.31C8.38,0,3.85,1.88,3.85,1.88L1.66,3
			c-2.7,1.41-1.29,3.75-1.29,3.75s0.29,0.57,0.64,1.28c0.36,0.71,1.31,0.95,2.14,0.53l4.51-2.29c0.82-0.42,1.28-1.13,1.02-1.6
			C8.43,4.2,8.16,3.69,8.13,3.53C8.11,3.37,9.04,2.98,9.92,2.69c1.33-0.42,3.3-1.02,5.22-1.02h1.58c0,0,4.8,0.1,6.82,1.81
			c0.03,0.03,0.06,0.1,0.08,0.11c0.05,0.02,0.06,0.08,0.02,0.14c-0.01,0.03-0.03,0.08-0.05,0.13c-0.12,0.29-0.26,0.59-0.4,0.85
			c-0.25,0.45,0.18,1.16,1,1.59l4.25,2.24c0.82,0.43,1.78,0.2,2.16-0.51l0.68-1.29C31.28,6.72,32.69,4.36,30,2.95"/>
	</g>
	<g>
		<path class="st0" d="M15.9,14.84c-1.96,0-3.56,1.6-3.56,3.56c0,1.96,1.6,3.56,3.56,3.56s3.56-1.6,3.56-3.56
			C19.46,16.43,17.86,14.84,15.9,14.84"/>
		<path class="st0" d="M10.52,17.9c0.08,0.03,0.16,0.03,0.23,0.03c0.42,0,0.78-0.28,0.89-0.68c0.13-0.48-0.16-0.99-0.65-1.12
			c-0.08-0.02-0.16-0.03-0.24-0.03c-0.41,0-0.77,0.28-0.88,0.68c-0.07,0.24-0.03,0.48,0.09,0.69C10.09,17.69,10.28,17.84,10.52,17.9
			"/>
		<path class="st0" d="M11.55,20.23c0.12-0.21,0.15-0.46,0.09-0.69c-0.11-0.4-0.47-0.68-0.89-0.68c-0.08,0-0.15,0.01-0.23,0.03
			c-0.48,0.13-0.78,0.63-0.65,1.12c0.11,0.4,0.47,0.68,0.88,0.68c0.08,0,0.16-0.01,0.24-0.03C11.23,20.59,11.43,20.44,11.55,20.23"
			/>
		<path class="st0" d="M14.76,22.65c-0.08-0.02-0.16-0.03-0.23-0.03c-0.42,0-0.78,0.28-0.89,0.68c-0.06,0.24-0.03,0.48,0.09,0.7
			c0.12,0.21,0.32,0.36,0.56,0.42c0.48,0.13,0.99-0.17,1.12-0.64c0.07-0.24,0.03-0.48-0.09-0.69
			C15.19,22.87,14.99,22.72,14.76,22.65"/>
		<path class="st0" d="M12.14,21.25c-0.24,0-0.47,0.09-0.65,0.27c-0.36,0.36-0.36,0.93,0,1.29c0.34,0.35,0.95,0.35,1.29,0
			c0.36-0.35,0.36-0.93,0-1.29C12.61,21.34,12.38,21.25,12.14,21.25"/>
		<path class="st0" d="M17.04,14.14c0.08,0.02,0.16,0.03,0.23,0.03c0.42,0,0.78-0.28,0.89-0.68c0.13-0.49-0.16-0.99-0.65-1.12
			c-0.08-0.02-0.15-0.03-0.23-0.03c-0.41,0-0.78,0.28-0.88,0.68C16.26,13.51,16.55,14.01,17.04,14.14"/>
		<path class="st0" d="M20.25,16.56c-0.12,0.21-0.16,0.46-0.09,0.69c0.11,0.4,0.47,0.68,0.88,0.68c0.08,0,0.16-0.01,0.24-0.03
			c0.24-0.07,0.43-0.22,0.56-0.43c0.12-0.21,0.15-0.46,0.09-0.7c-0.11-0.4-0.47-0.68-0.88-0.68c-0.08,0-0.16,0.01-0.24,0.03
			C20.56,16.2,20.36,16.35,20.25,16.56"/>
		<path class="st0" d="M14.52,14.17c0.08,0,0.16-0.01,0.23-0.03c0.24-0.06,0.44-0.21,0.56-0.42c0.12-0.21,0.16-0.46,0.09-0.7
			c-0.11-0.4-0.47-0.68-0.88-0.68c-0.08,0-0.16,0.01-0.24,0.03c-0.49,0.13-0.78,0.63-0.65,1.12C13.74,13.89,14.11,14.17,14.52,14.17
			"/>
		<path class="st0" d="M12.78,15.28c0.17-0.17,0.27-0.4,0.27-0.65c0-0.25-0.09-0.47-0.27-0.65c-0.17-0.17-0.4-0.27-0.65-0.27
			c-0.24,0-0.48,0.09-0.65,0.27s-0.27,0.4-0.27,0.65c0,0.24,0.09,0.47,0.27,0.65C11.83,15.63,12.44,15.63,12.78,15.28"/>
		<path class="st0" d="M21.27,18.89c-0.08-0.02-0.16-0.03-0.23-0.03c-0.42,0-0.78,0.28-0.89,0.68c-0.06,0.23-0.03,0.48,0.09,0.69
			c0.12,0.21,0.32,0.36,0.56,0.42c0.08,0.02,0.16,0.03,0.24,0.03c0.41,0,0.78-0.28,0.88-0.68C22.05,19.52,21.76,19.02,21.27,18.89"
			/>
		<path class="st0" d="M20.58,14.63c0-0.24-0.09-0.47-0.27-0.65c-0.17-0.17-0.4-0.27-0.65-0.27c-0.25,0-0.48,0.09-0.65,0.27
			c-0.36,0.36-0.36,0.94,0,1.3c0.17,0.17,0.4,0.26,0.65,0.26c0.25,0,0.48-0.09,0.65-0.27C20.48,15.11,20.58,14.88,20.58,14.63"/>
		<path class="st0" d="M15.9,25.54c-3.94,0-7.15-3.2-7.15-7.14s3.21-7.14,7.15-7.14s7.14,3.2,7.14,7.14S19.84,25.54,15.9,25.54
			 M29.67,20.86L25.11,9.95c-0.17-0.44-0.7-0.88-1.17-0.88h-1.73V6.65c0-0.77-0.63-1.41-1.41-1.41h-0.45
			c-0.78,0-1.41,0.63-1.41,1.41v2.42h-5.92V6.65c0-0.77-0.63-1.41-1.41-1.41h-0.45c-0.78,0-1.41,0.63-1.41,1.41v2.42H7.86
			c-0.48,0-1,0.44-1.17,0.88l-4.63,10.9c-0.17,0.44-0.16,1.18,0.03,1.61l2.2,4.36c0.19,0.43,0.72,0.85,1.2,0.85h20.83
			c0.47,0,1.01-0.4,1.2-0.84l2.13-4.32C29.83,22.07,29.84,21.3,29.67,20.86"/>
	</g>
</g>
</svg>
