<?xml version="1.0" encoding="utf-8"?>
<!-- Generator: Adobe Illustrator 27.9.4, SVG Export Plug-In . SVG Version: 9.03 Build 54784)  -->
<svg version="1.1" id="Laag_1" xmlns="http://www.w3.org/2000/svg" xmlns:xlink="http://www.w3.org/1999/xlink" x="0px" y="0px"
	 viewBox="0 0 10.32 11.63" style="enable-background:new 0 0 10.32 11.63;" xml:space="preserve">
<style type="text/css">
	.st0{fill:#397B6B;}
</style>
<g>
	<path class="st0" d="M5.16,4.08c1.79,0,3.25,1.45,3.25,3.25c0,1.79-1.45,3.25-3.25,3.25c-1.79,0-3.25-1.45-3.25-3.25
		C1.92,5.53,3.37,4.08,5.16,4.08 M10.28,10.4c-0.08-0.29-1.45-5.41-1.64-6.11C8.45,3.6,7.97,3.41,7.42,3.41H5.64V2.77
		C8.96,2.46,9.84,0,9.84,0H0.27c0,0,0.74,2.6,4.28,2.78v0.63H2.9c-0.55,0-1.03,0.19-1.22,0.88c-0.19,0.7-1.56,5.82-1.64,6.11
		c-0.11,0.36-0.07,0.83,0.66,0.83h0.52v0.39h7.78v-0.39h0.61C10.35,11.23,10.38,10.76,10.28,10.4"/>
	<path class="st0" d="M3.3,5.89L2.96,5.66l-0.1,0.14l0.33,0.23C3.22,5.98,3.26,5.94,3.3,5.89"/>
	<path class="st0" d="M4.21,5.16L4.03,4.8L3.88,4.87l0.19,0.37C4.12,5.22,4.16,5.19,4.21,5.16"/>
	<path class="st0" d="M2.8,7.32c0-0.02,0.01-0.04,0.01-0.05H2.4v0.17h0.42C2.81,7.4,2.8,7.36,2.8,7.32"/>
	<path class="st0" d="M7.71,6.08L7.63,5.93L7.2,6.16c0.03,0.05,0.06,0.1,0.08,0.15L7.71,6.08z"/>
	<path class="st0" d="M6.72,4.99L6.58,4.9L6.34,5.29c0.05,0.03,0.1,0.05,0.15,0.08L6.72,4.99z"/>
	<path class="st0" d="M5.29,4.98V4.54H5.12v0.43c0.01,0,0.03,0,0.04,0C5.2,4.96,5.25,4.97,5.29,4.98"/>
	<path class="st0" d="M6.53,9.83L6.3,9.37C6.25,9.4,6.2,9.43,6.15,9.45L6.37,9.9L6.53,9.83z"/>
	<path class="st0" d="M7.54,8.91L7.13,8.61C7.1,8.66,7.06,8.7,7.03,8.75l0.42,0.3L7.54,8.91z"/>
	<path class="st0" d="M7.52,7.32c0,0.04-0.01,0.08-0.01,0.11h0.5V7.26h-0.5C7.51,7.28,7.52,7.3,7.52,7.32"/>
	<path class="st0" d="M5.12,9.67v0.48h0.17V9.66c-0.04,0-0.08,0.01-0.13,0.01C5.15,9.68,5.13,9.67,5.12,9.67"/>
	<path class="st0" d="M3.08,8.41L2.7,8.62l0.08,0.15l0.38-0.21C3.13,8.51,3.11,8.46,3.08,8.41"/>
	<path class="st0" d="M4.07,9.4c-0.05-0.03-0.1-0.05-0.15-0.08l-0.24,0.4L3.83,9.8L4.07,9.4z"/>
	<path class="st0" d="M5.21,7.03c0.08,0,0.15,0.07,0.15,0.15S5.3,7.33,5.21,7.33c-0.08,0-0.15-0.07-0.15-0.15S5.13,7.03,5.21,7.03
		 M4.17,8.97L4.3,9.05l0.82-1.37C5.15,7.69,5.18,7.7,5.21,7.7c0.29,0,0.52-0.23,0.52-0.52c0-0.29-0.23-0.52-0.52-0.52
		c-0.29,0-0.52,0.23-0.52,0.52c0,0.16,0.08,0.3,0.2,0.4L4.17,8.97z"/>
</g>
</svg>
